<?xml version="1.0" encoding="utf-8" standalone="no"?>
<!DOCTYPE svg PUBLIC "-//W3C//DTD SVG 1.1//EN"
  "http://www.w3.org/Graphics/SVG/1.1/DTD/svg11.dtd">
<svg xmlns:xlink="http://www.w3.org/1999/xlink" width="421.962211pt" height="361.973969pt" viewBox="0 0 421.962211 361.973969" xmlns="http://www.w3.org/2000/svg" version="1.1">
 <metadata>
  <rdf:RDF xmlns:dc="http://purl.org/dc/elements/1.1/" xmlns:cc="http://creativecommons.org/ns#" xmlns:rdf="http://www.w3.org/1999/02/22-rdf-syntax-ns#">
   <cc:Work>
    <dc:type rdf:resource="http://purl.org/dc/dcmitype/StillImage"/>
    <dc:date>2026-09-17T21:24:58.131477</dc:date>
    <dc:format>image/svg+xml</dc:format>
    <dc:creator>
     <cc:Agent>
      <dc:title>Matplotlib v3.10.1, https://matplotlib.org/</dc:title>
     </cc:Agent>
    </dc:creator>
   </cc:Work>
  </rdf:RDF>
 </metadata>
 <defs>
  <style type="text/css">*{stroke-linejoin: round; stroke-linecap: butt}</style>
 </defs>
 <g id="figure_1">
  <g id="patch_1">
   <path d="M 0 361.973969 
L 421.962211 361.973969 
L 421.962211 0 
L 0 0 
z
" style="fill: #ffffff"/>
  </g>
  <g id="axes_1">
   <g id="patch_2">
    <path d="M 48.351828 294.898219 
L 406.452828 294.898219 
L 406.452828 21.862219 
L 48.351828 21.862219 
z
" style="fill: #ffffff"/>
   </g>
   <g id="matplotlib.axis_1">
    <g id="xtick_1">
     <g id="line2d_1">
      <defs>
       <path id="m8a08844d6e" d="M 0 0 
L 0 6 
" style="stroke: #262626; stroke-width: 1.25"/>
      </defs>
      <g>
       <use xlink:href="#m8a08844d6e" x="48.351828" y="294.898219" style="fill: #262626; stroke: #262626; stroke-width: 1.25"/>
      </g>
     </g>
     <g id="text_1">
      <text style="font-size: 10.45px; font-family: 'DejaVu Sans'; text-anchor: middle; fill: #262626" x="48.351828" y="312.338586" transform="rotate(-0 48.351828 312.338586)">0.0</text>
     </g>
    </g>
    <g id="xtick_2">
     <g id="line2d_2">
      <g>
       <use xlink:href="#m8a08844d6e" x="119.972028" y="294.898219" style="fill: #262626; stroke: #262626; stroke-width: 1.25"/>
      </g>
     </g>
     <g id="text_2">
      <text style="font-size: 10.45px; font-family: 'DejaVu Sans'; text-anchor: middle; fill: #262626" x="119.972028" y="312.338586" transform="rotate(-0 119.972028 312.338586)">0.2</text>
     </g>
    </g>
    <g id="xtick_3">
     <g id="line2d_3">
      <g>
       <use xlink:href="#m8a08844d6e" x="191.592228" y="294.898219" style="fill: #262626; stroke: #262626; stroke-width: 1.25"/>
      </g>
     </g>
     <g id="text_3">
      <text style="font-size: 10.45px; font-family: 'DejaVu Sans'; text-anchor: middle; fill: #262626" x="191.592228" y="312.338586" transform="rotate(-0 191.592228 312.338586)">0.4</text>
     </g>
    </g>
    <g id="xtick_4">
     <g id="line2d_4">
      <g>
       <use xlink:href="#m8a08844d6e" x="263.212428" y="294.898219" style="fill: #262626; stroke: #262626; stroke-width: 1.25"/>
      </g>
     </g>
     <g id="text_4">
      <text style="font-size: 10.45px; font-family: 'DejaVu Sans'; text-anchor: middle; fill: #262626" x="263.212428" y="312.338586" transform="rotate(-0 263.212428 312.338586)">0.6</text>
     </g>
    </g>
    <g id="xtick_5">
     <g id="line2d_5">
      <g>
       <use xlink:href="#m8a08844d6e" x="334.832628" y="294.898219" style="fill: #262626; stroke: #262626; stroke-width: 1.25"/>
      </g>
     </g>
     <g id="text_5">
      <text style="font-size: 10.45px; font-family: 'DejaVu Sans'; text-anchor: middle; fill: #262626" x="334.832628" y="312.338586" transform="rotate(-0 334.832628 312.338586)">0.8</text>
     </g>
    </g>
    <g id="xtick_6">
     <g id="line2d_6">
      <g>
       <use xlink:href="#m8a08844d6e" x="406.452828" y="294.898219" style="fill: #262626; stroke: #262626; stroke-width: 1.25"/>
      </g>
     </g>
     <g id="text_6">
      <text style="font-size: 10.45px; font-family: 'DejaVu Sans'; text-anchor: middle; fill: #262626" x="406.452828" y="312.338586" transform="rotate(-0 406.452828 312.338586)">1.0</text>
     </g>
    </g>
    <g id="text_7">
     <text style="font-size: 11.4px; font-family: 'DejaVu Sans'; text-anchor: middle; fill: #262626" x="227.402328" y="327.174078" transform="rotate(-0 227.402328 327.174078)">Mean top-label confidence</text>
    </g>
   </g>
   <g id="matplotlib.axis_2">
    <g id="ytick_1">
     <g id="line2d_7">
      <defs>
       <path id="m918840d028" d="M 0 0 
L -6 0 
" style="stroke: #262626; stroke-width: 1.25"/>
      </defs>
      <g>
       <use xlink:href="#m918840d028" x="48.351828" y="294.898219" style="fill: #262626; stroke: #262626; stroke-width: 1.25"/>
      </g>
     </g>
     <g id="text_8">
      <text style="font-size: 10.45px; font-family: 'DejaVu Sans'; text-anchor: end; fill: #262626" x="38.851828" y="298.868402" transform="rotate(-0 38.851828 298.868402)">0.0</text>
     </g>
    </g>
    <g id="ytick_2">
     <g id="line2d_8">
      <g>
       <use xlink:href="#m918840d028" x="48.351828" y="240.291019" style="fill: #262626; stroke: #262626; stroke-width: 1.25"/>
      </g>
     </g>
     <g id="text_9">
      <text style="font-size: 10.45px; font-family: 'DejaVu Sans'; text-anchor: end; fill: #262626" x="38.851828" y="244.261202" transform="rotate(-0 38.851828 244.261202)">0.2</text>
     </g>
    </g>
    <g id="ytick_3">
     <g id="line2d_9">
      <g>
       <use xlink:href="#m918840d028" x="48.351828" y="185.683819" style="fill: #262626; stroke: #262626; stroke-width: 1.25"/>
      </g>
     </g>
     <g id="text_10">
      <text style="font-size: 10.45px; font-family: 'DejaVu Sans'; text-anchor: end; fill: #262626" x="38.851828" y="189.654002" transform="rotate(-0 38.851828 189.654002)">0.4</text>
     </g>
    </g>
    <g id="ytick_4">
     <g id="line2d_10">
      <g>
       <use xlink:href="#m918840d028" x="48.351828" y="131.076619" style="fill: #262626; stroke: #262626; stroke-width: 1.25"/>
      </g>
     </g>
     <g id="text_11">
      <text style="font-size: 10.45px; font-family: 'DejaVu Sans'; text-anchor: end; fill: #262626" x="38.851828" y="135.046802" transform="rotate(-0 38.851828 135.046802)">0.6</text>
     </g>
    </g>
    <g id="ytick_5">
     <g id="line2d_11">
      <g>
       <use xlink:href="#m918840d028" x="48.351828" y="76.469419" style="fill: #262626; stroke: #262626; stroke-width: 1.25"/>
      </g>
     </g>
     <g id="text_12">
      <text style="font-size: 10.45px; font-family: 'DejaVu Sans'; text-anchor: end; fill: #262626" x="38.851828" y="80.439602" transform="rotate(-0 38.851828 80.439602)">0.8</text>
     </g>
    </g>
    <g id="ytick_6">
     <g id="line2d_12">
      <g>
       <use xlink:href="#m918840d028" x="48.351828" y="21.862219" style="fill: #262626; stroke: #262626; stroke-width: 1.25"/>
      </g>
     </g>
     <g id="text_13">
      <text style="font-size: 10.45px; font-family: 'DejaVu Sans'; text-anchor: end; fill: #262626" x="38.851828" y="25.832402" transform="rotate(-0 38.851828 25.832402)">1.0</text>
     </g>
    </g>
    <g id="text_14">
     <text style="font-size: 11.4px; font-family: 'DejaVu Sans'; text-anchor: middle; fill: #262626" x="15.862219" y="158.380219" transform="rotate(-90 15.862219 158.380219)">Observed accuracy</text>
    </g>
   </g>
   <g id="line2d_13">
    <path d="M 48.351828 294.898219 
L 406.452828 21.862219 
" clip-path="url(#p60713372a3)" style="fill: none; stroke-dasharray: 5.55,2.4; stroke-dashoffset: 0; stroke: #999999; stroke-width: 1.5"/>
   </g>
   <g id="line2d_14">
    <path d="M 129.11346 203.886219 
L 182.838513 240.291019 
L 198.711783 240.291019 
L 257.777114 216.887933 
L 270.445057 203.886219 
L 332.26188 76.469419 
L 343.115215 158.380219 
L 406.452828 21.862219 
" clip-path="url(#p60713372a3)" style="fill: none; stroke: #4c72b0; stroke-width: 1.5; stroke-linecap: round"/>
    <defs>
     <path id="mbf6819e3de" d="M 0 3 
C 0.795609 3 1.55874 2.683901 2.12132 2.12132 
C 2.683901 1.55874 3 0.795609 3 0 
C 3 -0.795609 2.683901 -1.55874 2.12132 -2.12132 
C 1.55874 -2.683901 0.795609 -3 0 -3 
C -0.795609 -3 -1.55874 -2.683901 -2.12132 -2.12132 
C -2.683901 -1.55874 -3 -0.795609 -3 0 
C -3 0.795609 -2.683901 1.55874 -2.12132 2.12132 
C -1.55874 2.683901 -0.795609 3 0 3 
z
" style="stroke: #4c72b0"/>
    </defs>
    <g clip-path="url(#p60713372a3)">
     <use xlink:href="#mbf6819e3de" x="129.11346" y="203.886219" style="fill: #4c72b0; stroke: #4c72b0"/>
     <use xlink:href="#mbf6819e3de" x="182.838513" y="240.291019" style="fill: #4c72b0; stroke: #4c72b0"/>
     <use xlink:href="#mbf6819e3de" x="198.711783" y="240.291019" style="fill: #4c72b0; stroke: #4c72b0"/>
     <use xlink:href="#mbf6819e3de" x="257.777114" y="216.887933" style="fill: #4c72b0; stroke: #4c72b0"/>
     <use xlink:href="#mbf6819e3de" x="270.445057" y="203.886219" style="fill: #4c72b0; stroke: #4c72b0"/>
     <use xlink:href="#mbf6819e3de" x="332.26188" y="76.469419" style="fill: #4c72b0; stroke: #4c72b0"/>
     <use xlink:href="#mbf6819e3de" x="343.115215" y="158.380219" style="fill: #4c72b0; stroke: #4c72b0"/>
     <use xlink:href="#mbf6819e3de" x="406.452828" y="21.862219" style="fill: #4c72b0; stroke: #4c72b0"/>
    </g>
   </g>
   <g id="line2d_15">
    <path d="M 112.931424 294.898219 
L 133.616235 219.054885 
" clip-path="url(#p60713372a3)" style="fill: none; stroke: #dd8452; stroke-width: 1.5; stroke-linecap: round"/>
    <defs>
     <path id="m388c58d1b5" d="M 0 3 
C 0.795609 3 1.55874 2.683901 2.12132 2.12132 
C 2.683901 1.55874 3 0.795609 3 0 
C 3 -0.795609 2.683901 -1.55874 2.12132 -2.12132 
C 1.55874 -2.683901 0.795609 -3 0 -3 
C -0.795609 -3 -1.55874 -2.683901 -2.12132 -2.12132 
C -2.683901 -1.55874 -3 -0.795609 -3 0 
C -3 0.795609 -2.683901 1.55874 -2.12132 2.12132 
C -1.55874 2.683901 -0.795609 3 0 3 
z
" style="stroke: #dd8452"/>
    </defs>
    <g clip-path="url(#p60713372a3)">
     <use xlink:href="#m388c58d1b5" x="112.931424" y="294.898219" style="fill: #dd8452; stroke: #dd8452"/>
     <use xlink:href="#m388c58d1b5" x="133.616235" y="219.054885" style="fill: #dd8452; stroke: #dd8452"/>
    </g>
   </g>
   <g id="line2d_16">
    <path d="M 95.147952 219.813319 
" clip-path="url(#p60713372a3)" style="fill: none; stroke: #55a868; stroke-width: 1.5; stroke-linecap: round"/>
    <defs>
     <path id="m3dc6f7465e" d="M 0 3 
C 0.795609 3 1.55874 2.683901 2.12132 2.12132 
C 2.683901 1.55874 3 0.795609 3 0 
C 3 -0.795609 2.683901 -1.55874 2.12132 -2.12132 
C 1.55874 -2.683901 0.795609 -3 0 -3 
C -0.795609 -3 -1.55874 -2.683901 -2.12132 -2.12132 
C -2.683901 -1.55874 -3 -0.795609 -3 0 
C -3 0.795609 -2.683901 1.55874 -2.12132 2.12132 
C -1.55874 2.683901 -0.795609 3 0 3 
z
" style="stroke: #55a868"/>
    </defs>
    <g clip-path="url(#p60713372a3)">
     <use xlink:href="#m3dc6f7465e" x="95.147952" y="219.813319" style="fill: #55a868; stroke: #55a868"/>
    </g>
   </g>
   <g id="line2d_17">
    <path d="M 94.813264 233.465119 
" clip-path="url(#p60713372a3)" style="fill: none; stroke: #c44e52; stroke-width: 1.5; stroke-linecap: round"/>
    <defs>
     <path id="mbd628b6281" d="M 0 3 
C 0.795609 3 1.55874 2.683901 2.12132 2.12132 
C 2.683901 1.55874 3 0.795609 3 0 
C 3 -0.795609 2.683901 -1.55874 2.12132 -2.12132 
C 1.55874 -2.683901 0.795609 -3 0 -3 
C -0.795609 -3 -1.55874 -2.683901 -2.12132 -2.12132 
C -2.683901 -1.55874 -3 -0.795609 -3 0 
C -3 0.795609 -2.683901 1.55874 -2.12132 2.12132 
C -1.55874 2.683901 -0.795609 3 0 3 
z
" style="stroke: #c44e52"/>
    </defs>
    <g clip-path="url(#p60713372a3)">
     <use xlink:href="#mbd628b6281" x="94.813264" y="233.465119" style="fill: #c44e52; stroke: #c44e52"/>
    </g>
   </g>
   <g id="patch_3">
    <path d="M 48.351828 294.898219 
L 48.351828 21.862219 
" style="fill: none; stroke: #262626; stroke-width: 1.25; stroke-linejoin: miter; stroke-linecap: square"/>
   </g>
   <g id="patch_4">
    <path d="M 48.351828 294.898219 
L 406.452828 294.898219 
" style="fill: none; stroke: #262626; stroke-width: 1.25; stroke-linejoin: miter; stroke-linecap: square"/>
   </g>
   <g id="text_15">
    <text style="font-size: 11.4px; font-family: 'DejaVu Sans'; text-anchor: middle; fill: #262626" x="227.402328" y="15.862219" transform="rotate(-0 227.402328 15.862219)">Reliability diagram (10 equal-width bins)</text>
   </g>
   <g id="legend_1">
    <g id="patch_5">
     <path d="M 53.951828 86.974719 
L 184.085578 86.974719 
Q 185.685578 86.974719 185.685578 85.374719 
L 185.685578 27.462219 
Q 185.685578 25.862219 184.085578 25.862219 
L 53.951828 25.862219 
Q 52.351828 25.862219 52.351828 27.462219 
L 52.351828 85.374719 
Q 52.351828 86.974719 53.951828 86.974719 
z
" style="fill: #ffffff; opacity: 0.8; stroke: #cccccc; stroke-linejoin: miter"/>
    </g>
    <g id="line2d_18">
     <path d="M 55.551828 32.340969 
L 63.551828 32.340969 
L 71.551828 32.340969 
" style="fill: none; stroke-dasharray: 5.55,2.4; stroke-dashoffset: 0; stroke: #999999; stroke-width: 1.5"/>
    </g>
    <g id="text_16">
     <text style="font-size: 8px; font-family: 'DejaVu Sans'; text-anchor: start; fill: #262626" x="77.951828" y="35.140969" transform="rotate(-0 77.951828 35.140969)">Perfect calibration</text>
    </g>
    <g id="line2d_19">
     <path d="M 55.551828 44.083469 
L 63.551828 44.083469 
L 71.551828 44.083469 
" style="fill: none; stroke: #4c72b0; stroke-width: 1.5; stroke-linecap: round"/>
     <g>
      <use xlink:href="#mbf6819e3de" x="63.551828" y="44.083469" style="fill: #4c72b0; stroke: #4c72b0"/>
     </g>
    </g>
    <g id="text_17">
     <text style="font-size: 8px; font-family: 'DejaVu Sans'; text-anchor: start; fill: #262626" x="77.951828" y="46.883469" transform="rotate(-0 77.951828 46.883469)">Frozen + kNN (ECE 0.218)</text>
    </g>
    <g id="line2d_20">
     <path d="M 55.551828 55.825969 
L 63.551828 55.825969 
L 71.551828 55.825969 
" style="fill: none; stroke: #dd8452; stroke-width: 1.5; stroke-linecap: round"/>
     <g>
      <use xlink:href="#m388c58d1b5" x="63.551828" y="55.825969" style="fill: #dd8452; stroke: #dd8452"/>
     </g>
    </g>
    <g id="text_18">
     <text style="font-size: 8px; font-family: 'DejaVu Sans'; text-anchor: start; fill: #262626" x="77.951828" y="58.625969" transform="rotate(-0 77.951828 58.625969)">Linear probe (ECE 0.054)</text>
    </g>
    <g id="line2d_21">
     <path d="M 55.551828 67.568469 
L 63.551828 67.568469 
L 71.551828 67.568469 
" style="fill: none; stroke: #55a868; stroke-width: 1.5; stroke-linecap: round"/>
     <g>
      <use xlink:href="#m3dc6f7465e" x="63.551828" y="67.568469" style="fill: #55a868; stroke: #55a868"/>
     </g>
    </g>
    <g id="text_19">
     <text style="font-size: 8px; font-family: 'DejaVu Sans'; text-anchor: start; fill: #262626" x="77.951828" y="70.368469" transform="rotate(-0 77.951828 70.368469)">LoRA (ECE 0.144)</text>
    </g>
    <g id="line2d_22">
     <path d="M 55.551828 79.310969 
L 63.551828 79.310969 
L 71.551828 79.310969 
" style="fill: none; stroke: #c44e52; stroke-width: 1.5; stroke-linecap: round"/>
     <g>
      <use xlink:href="#mbd628b6281" x="63.551828" y="79.310969" style="fill: #c44e52; stroke: #c44e52"/>
     </g>
    </g>
    <g id="text_20">
     <text style="font-size: 8px; font-family: 'DejaVu Sans'; text-anchor: start; fill: #262626" x="77.951828" y="82.110969" transform="rotate(-0 77.951828 82.110969)">Full FT (ECE 0.095)</text>
    </g>
   </g>
  </g>
  <g id="text_21">
   <text style="font-size: 8px; font-family: 'DejaVu Sans'; text-anchor: middle; fill: #8c4d4d" x="211.089828" y="353.110219" transform="rotate(-0 211.089828 353.110219)">SMOKE TEST / PLACEHOLDER - not a performance ranking</text>
  </g>
 </g>
 <defs>
  <clipPath id="p60713372a3">
   <rect x="48.351828" y="21.862219" width="358.101" height="273.036"/>
  </clipPath>
 </defs>
</svg>
