<?xml version="1.0" encoding="utf-8" standalone="no"?>
<!DOCTYPE svg PUBLIC "-//W3C//DTD SVG 1.1//EN"
  "http://www.w3.org/Graphics/SVG/1.1/DTD/svg11.dtd">
<svg xmlns:xlink="http://www.w3.org/1999/xlink" width="637.977828pt" height="232.502703pt" viewBox="0 0 637.977828 232.502703" xmlns="http://www.w3.org/2000/svg" version="1.1">
 <metadata>
  <rdf:RDF xmlns:dc="http://purl.org/dc/elements/1.1/" xmlns:cc="http://creativecommons.org/ns#" xmlns:rdf="http://www.w3.org/1999/02/22-rdf-syntax-ns#">
   <cc:Work>
    <dc:type rdf:resource="http://purl.org/dc/dcmitype/StillImage"/>
    <dc:date>2026-09-18T01:52:52.010300</dc:date>
    <dc:format>image/svg+xml</dc:format>
    <dc:creator>
     <cc:Agent>
      <dc:title>Matplotlib v3.10.1, https://matplotlib.org/</dc:title>
     </cc:Agent>
    </dc:creator>
   </cc:Work>
  </rdf:RDF>
 </metadata>
 <defs>
  <style type="text/css">*{stroke-linejoin: round; stroke-linecap: butt}</style>
 </defs>
 <g id="figure_1">
  <g id="patch_1">
   <path d="M 0 232.502703 
L 637.977828 232.502703 
L 637.977828 0 
L 0 0 
z
" style="fill: #ffffff"/>
  </g>
  <g id="axes_1">
   <g id="patch_2">
    <path d="M 48.351828 190.656 
L 309.603828 190.656 
L 309.603828 7.2 
L 48.351828 7.2 
z
" style="fill: #ffffff"/>
   </g>
   <g id="matplotlib.axis_1">
    <g id="xtick_1">
     <g id="line2d_1">
      <defs>
       <path id="m899a1aae5b" d="M 0 0 
L 0 6 
" style="stroke: #262626; stroke-width: 1.25"/>
      </defs>
      <g>
       <use xlink:href="#m899a1aae5b" x="86.61601" y="190.656" style="fill: #262626; stroke: #262626; stroke-width: 1.25"/>
      </g>
     </g>
     <g id="text_1">
      <text style="font-size: 10.45px; font-family: 'DejaVu Sans'; text-anchor: middle; fill: #262626" x="86.61601" y="208.096367" transform="rotate(-0 86.61601 208.096367)">2</text>
     </g>
    </g>
    <g id="xtick_2">
     <g id="line2d_2">
      <g>
       <use xlink:href="#m899a1aae5b" x="139.394192" y="190.656" style="fill: #262626; stroke: #262626; stroke-width: 1.25"/>
      </g>
     </g>
     <g id="text_2">
      <text style="font-size: 10.45px; font-family: 'DejaVu Sans'; text-anchor: middle; fill: #262626" x="139.394192" y="208.096367" transform="rotate(-0 139.394192 208.096367)">4</text>
     </g>
    </g>
    <g id="xtick_3">
     <g id="line2d_3">
      <g>
       <use xlink:href="#m899a1aae5b" x="192.172374" y="190.656" style="fill: #262626; stroke: #262626; stroke-width: 1.25"/>
      </g>
     </g>
     <g id="text_3">
      <text style="font-size: 10.45px; font-family: 'DejaVu Sans'; text-anchor: middle; fill: #262626" x="192.172374" y="208.096367" transform="rotate(-0 192.172374 208.096367)">6</text>
     </g>
    </g>
    <g id="xtick_4">
     <g id="line2d_4">
      <g>
       <use xlink:href="#m899a1aae5b" x="244.950555" y="190.656" style="fill: #262626; stroke: #262626; stroke-width: 1.25"/>
      </g>
     </g>
     <g id="text_4">
      <text style="font-size: 10.45px; font-family: 'DejaVu Sans'; text-anchor: middle; fill: #262626" x="244.950555" y="208.096367" transform="rotate(-0 244.950555 208.096367)">8</text>
     </g>
    </g>
    <g id="xtick_5">
     <g id="line2d_5">
      <g>
       <use xlink:href="#m899a1aae5b" x="297.728737" y="190.656" style="fill: #262626; stroke: #262626; stroke-width: 1.25"/>
      </g>
     </g>
     <g id="text_5">
      <text style="font-size: 10.45px; font-family: 'DejaVu Sans'; text-anchor: middle; fill: #262626" x="297.728737" y="208.096367" transform="rotate(-0 297.728737 208.096367)">10</text>
     </g>
    </g>
    <g id="text_6">
     <text style="font-size: 11.4px; font-family: 'DejaVu Sans'; text-anchor: middle; fill: #262626" x="178.977828" y="222.931859" transform="rotate(-0 178.977828 222.931859)">Epoch</text>
    </g>
   </g>
   <g id="matplotlib.axis_2">
    <g id="ytick_1">
     <g id="line2d_6">
      <defs>
       <path id="mbf121f434b" d="M 0 0 
L -6 0 
" style="stroke: #262626; stroke-width: 1.25"/>
      </defs>
      <g>
       <use xlink:href="#mbf121f434b" x="48.351828" y="172.910503" style="fill: #262626; stroke: #262626; stroke-width: 1.25"/>
      </g>
     </g>
     <g id="text_7">
      <text style="font-size: 10.45px; font-family: 'DejaVu Sans'; text-anchor: end; fill: #262626" x="38.851828" y="176.880686" transform="rotate(-0 38.851828 176.880686)">0.2</text>
     </g>
    </g>
    <g id="ytick_2">
     <g id="line2d_7">
      <g>
       <use xlink:href="#mbf121f434b" x="48.351828" y="144.824855" style="fill: #262626; stroke: #262626; stroke-width: 1.25"/>
      </g>
     </g>
     <g id="text_8">
      <text style="font-size: 10.45px; font-family: 'DejaVu Sans'; text-anchor: end; fill: #262626" x="38.851828" y="148.795038" transform="rotate(-0 38.851828 148.795038)">0.4</text>
     </g>
    </g>
    <g id="ytick_3">
     <g id="line2d_8">
      <g>
       <use xlink:href="#mbf121f434b" x="48.351828" y="116.739207" style="fill: #262626; stroke: #262626; stroke-width: 1.25"/>
      </g>
     </g>
     <g id="text_9">
      <text style="font-size: 10.45px; font-family: 'DejaVu Sans'; text-anchor: end; fill: #262626" x="38.851828" y="120.70939" transform="rotate(-0 38.851828 120.70939)">0.6</text>
     </g>
    </g>
    <g id="ytick_4">
     <g id="line2d_9">
      <g>
       <use xlink:href="#mbf121f434b" x="48.351828" y="88.653559" style="fill: #262626; stroke: #262626; stroke-width: 1.25"/>
      </g>
     </g>
     <g id="text_10">
      <text style="font-size: 10.45px; font-family: 'DejaVu Sans'; text-anchor: end; fill: #262626" x="38.851828" y="92.623743" transform="rotate(-0 38.851828 92.623743)">0.8</text>
     </g>
    </g>
    <g id="ytick_5">
     <g id="line2d_10">
      <g>
       <use xlink:href="#mbf121f434b" x="48.351828" y="60.567911" style="fill: #262626; stroke: #262626; stroke-width: 1.25"/>
      </g>
     </g>
     <g id="text_11">
      <text style="font-size: 10.45px; font-family: 'DejaVu Sans'; text-anchor: end; fill: #262626" x="38.851828" y="64.538095" transform="rotate(-0 38.851828 64.538095)">1.0</text>
     </g>
    </g>
    <g id="ytick_6">
     <g id="line2d_11">
      <g>
       <use xlink:href="#mbf121f434b" x="48.351828" y="32.482263" style="fill: #262626; stroke: #262626; stroke-width: 1.25"/>
      </g>
     </g>
     <g id="text_12">
      <text style="font-size: 10.45px; font-family: 'DejaVu Sans'; text-anchor: end; fill: #262626" x="38.851828" y="36.452447" transform="rotate(-0 38.851828 36.452447)">1.2</text>
     </g>
    </g>
    <g id="text_13">
     <text style="font-size: 11.4px; font-family: 'DejaVu Sans'; text-anchor: middle; fill: #262626" x="15.862219" y="98.928" transform="rotate(-90 15.862219 98.928)">Training cross-entropy</text>
    </g>
   </g>
   <g id="line2d_12">
    <path d="M 60.226919 15.538909 
L 86.61601 66.57078 
L 113.005101 80.121155 
L 139.394192 87.201034 
L 165.783283 91.78664 
L 192.172374 95.067765 
L 218.561464 97.626056 
L 244.950555 99.732441 
L 271.339646 101.284411 
L 297.728737 102.727302 
" clip-path="url(#p6e3b2de711)" style="fill: none; stroke: #dd8452; stroke-width: 1.5; stroke-linecap: round"/>
    <defs>
     <path id="m20f906394f" d="M 0 3 
C 0.795609 3 1.55874 2.683901 2.12132 2.12132 
C 2.683901 1.55874 3 0.795609 3 0 
C 3 -0.795609 2.683901 -1.55874 2.12132 -2.12132 
C 1.55874 -2.683901 0.795609 -3 0 -3 
C -0.795609 -3 -1.55874 -2.683901 -2.12132 -2.12132 
C -2.683901 -1.55874 -3 -0.795609 -3 0 
C -3 0.795609 -2.683901 1.55874 -2.12132 2.12132 
C -1.55874 2.683901 -0.795609 3 0 3 
z
" style="stroke: #dd8452"/>
    </defs>
    <g clip-path="url(#p6e3b2de711)">
     <use xlink:href="#m20f906394f" x="60.226919" y="15.538909" style="fill: #dd8452; stroke: #dd8452"/>
     <use xlink:href="#m20f906394f" x="86.61601" y="66.57078" style="fill: #dd8452; stroke: #dd8452"/>
     <use xlink:href="#m20f906394f" x="113.005101" y="80.121155" style="fill: #dd8452; stroke: #dd8452"/>
     <use xlink:href="#m20f906394f" x="139.394192" y="87.201034" style="fill: #dd8452; stroke: #dd8452"/>
     <use xlink:href="#m20f906394f" x="165.783283" y="91.78664" style="fill: #dd8452; stroke: #dd8452"/>
     <use xlink:href="#m20f906394f" x="192.172374" y="95.067765" style="fill: #dd8452; stroke: #dd8452"/>
     <use xlink:href="#m20f906394f" x="218.561464" y="97.626056" style="fill: #dd8452; stroke: #dd8452"/>
     <use xlink:href="#m20f906394f" x="244.950555" y="99.732441" style="fill: #dd8452; stroke: #dd8452"/>
     <use xlink:href="#m20f906394f" x="271.339646" y="101.284411" style="fill: #dd8452; stroke: #dd8452"/>
     <use xlink:href="#m20f906394f" x="297.728737" y="102.727302" style="fill: #dd8452; stroke: #dd8452"/>
    </g>
   </g>
   <g id="line2d_13">
    <path d="M 60.226919 19.565586 
L 86.61601 100.718684 
L 113.005101 117.240078 
L 139.394192 128.585395 
L 165.783283 138.591362 
L 192.172374 148.971883 
L 218.561464 156.993604 
L 244.950555 165.173876 
L 271.339646 172.138522 
L 297.728737 177.91959 
" clip-path="url(#p6e3b2de711)" style="fill: none; stroke: #55a868; stroke-width: 1.5; stroke-linecap: round"/>
    <defs>
     <path id="me6d6c93e77" d="M 0 3 
C 0.795609 3 1.55874 2.683901 2.12132 2.12132 
C 2.683901 1.55874 3 0.795609 3 0 
C 3 -0.795609 2.683901 -1.55874 2.12132 -2.12132 
C 1.55874 -2.683901 0.795609 -3 0 -3 
C -0.795609 -3 -1.55874 -2.683901 -2.12132 -2.12132 
C -2.683901 -1.55874 -3 -0.795609 -3 0 
C -3 0.795609 -2.683901 1.55874 -2.12132 2.12132 
C -1.55874 2.683901 -0.795609 3 0 3 
z
" style="stroke: #55a868"/>
    </defs>
    <g clip-path="url(#p6e3b2de711)">
     <use xlink:href="#me6d6c93e77" x="60.226919" y="19.565586" style="fill: #55a868; stroke: #55a868"/>
     <use xlink:href="#me6d6c93e77" x="86.61601" y="100.718684" style="fill: #55a868; stroke: #55a868"/>
     <use xlink:href="#me6d6c93e77" x="113.005101" y="117.240078" style="fill: #55a868; stroke: #55a868"/>
     <use xlink:href="#me6d6c93e77" x="139.394192" y="128.585395" style="fill: #55a868; stroke: #55a868"/>
     <use xlink:href="#me6d6c93e77" x="165.783283" y="138.591362" style="fill: #55a868; stroke: #55a868"/>
     <use xlink:href="#me6d6c93e77" x="192.172374" y="148.971883" style="fill: #55a868; stroke: #55a868"/>
     <use xlink:href="#me6d6c93e77" x="218.561464" y="156.993604" style="fill: #55a868; stroke: #55a868"/>
     <use xlink:href="#me6d6c93e77" x="244.950555" y="165.173876" style="fill: #55a868; stroke: #55a868"/>
     <use xlink:href="#me6d6c93e77" x="271.339646" y="172.138522" style="fill: #55a868; stroke: #55a868"/>
     <use xlink:href="#me6d6c93e77" x="297.728737" y="177.91959" style="fill: #55a868; stroke: #55a868"/>
    </g>
   </g>
   <g id="line2d_14">
    <path d="M 60.226919 42.960708 
L 86.61601 110.373507 
L 113.005101 129.120855 
L 139.394192 143.075691 
L 165.783283 154.018189 
L 192.172374 162.572188 
L 218.561464 168.492949 
L 244.950555 173.988014 
L 271.339646 178.582143 
L 297.728737 182.317091 
" clip-path="url(#p6e3b2de711)" style="fill: none; stroke: #c44e52; stroke-width: 1.5; stroke-linecap: round"/>
    <defs>
     <path id="mec7409a573" d="M 0 3 
C 0.795609 3 1.55874 2.683901 2.12132 2.12132 
C 2.683901 1.55874 3 0.795609 3 0 
C 3 -0.795609 2.683901 -1.55874 2.12132 -2.12132 
C 1.55874 -2.683901 0.795609 -3 0 -3 
C -0.795609 -3 -1.55874 -2.683901 -2.12132 -2.12132 
C -2.683901 -1.55874 -3 -0.795609 -3 0 
C -3 0.795609 -2.683901 1.55874 -2.12132 2.12132 
C -1.55874 2.683901 -0.795609 3 0 3 
z
" style="stroke: #c44e52"/>
    </defs>
    <g clip-path="url(#p6e3b2de711)">
     <use xlink:href="#mec7409a573" x="60.226919" y="42.960708" style="fill: #c44e52; stroke: #c44e52"/>
     <use xlink:href="#mec7409a573" x="86.61601" y="110.373507" style="fill: #c44e52; stroke: #c44e52"/>
     <use xlink:href="#mec7409a573" x="113.005101" y="129.120855" style="fill: #c44e52; stroke: #c44e52"/>
     <use xlink:href="#mec7409a573" x="139.394192" y="143.075691" style="fill: #c44e52; stroke: #c44e52"/>
     <use xlink:href="#mec7409a573" x="165.783283" y="154.018189" style="fill: #c44e52; stroke: #c44e52"/>
     <use xlink:href="#mec7409a573" x="192.172374" y="162.572188" style="fill: #c44e52; stroke: #c44e52"/>
     <use xlink:href="#mec7409a573" x="218.561464" y="168.492949" style="fill: #c44e52; stroke: #c44e52"/>
     <use xlink:href="#mec7409a573" x="244.950555" y="173.988014" style="fill: #c44e52; stroke: #c44e52"/>
     <use xlink:href="#mec7409a573" x="271.339646" y="178.582143" style="fill: #c44e52; stroke: #c44e52"/>
     <use xlink:href="#mec7409a573" x="297.728737" y="182.317091" style="fill: #c44e52; stroke: #c44e52"/>
    </g>
   </g>
   <g id="patch_3">
    <path d="M 48.351828 190.656 
L 48.351828 7.2 
" style="fill: none; stroke: #262626; stroke-width: 1.25; stroke-linejoin: miter; stroke-linecap: square"/>
   </g>
   <g id="patch_4">
    <path d="M 48.351828 190.656 
L 309.603828 190.656 
" style="fill: none; stroke: #262626; stroke-width: 1.25; stroke-linejoin: miter; stroke-linecap: square"/>
   </g>
  </g>
  <g id="axes_2">
   <g id="patch_5">
    <path d="M 369.525828 190.656 
L 630.777828 190.656 
L 630.777828 7.2 
L 369.525828 7.2 
z
" style="fill: #ffffff"/>
   </g>
   <g id="matplotlib.axis_3">
    <g id="xtick_6">
     <g id="line2d_15">
      <g>
       <use xlink:href="#m899a1aae5b" x="407.79001" y="190.656" style="fill: #262626; stroke: #262626; stroke-width: 1.25"/>
      </g>
     </g>
     <g id="text_14">
      <text style="font-size: 10.45px; font-family: 'DejaVu Sans'; text-anchor: middle; fill: #262626" x="407.79001" y="208.096367" transform="rotate(-0 407.79001 208.096367)">2</text>
     </g>
    </g>
    <g id="xtick_7">
     <g id="line2d_16">
      <g>
       <use xlink:href="#m899a1aae5b" x="460.568192" y="190.656" style="fill: #262626; stroke: #262626; stroke-width: 1.25"/>
      </g>
     </g>
     <g id="text_15">
      <text style="font-size: 10.45px; font-family: 'DejaVu Sans'; text-anchor: middle; fill: #262626" x="460.568192" y="208.096367" transform="rotate(-0 460.568192 208.096367)">4</text>
     </g>
    </g>
    <g id="xtick_8">
     <g id="line2d_17">
      <g>
       <use xlink:href="#m899a1aae5b" x="513.346374" y="190.656" style="fill: #262626; stroke: #262626; stroke-width: 1.25"/>
      </g>
     </g>
     <g id="text_16">
      <text style="font-size: 10.45px; font-family: 'DejaVu Sans'; text-anchor: middle; fill: #262626" x="513.346374" y="208.096367" transform="rotate(-0 513.346374 208.096367)">6</text>
     </g>
    </g>
    <g id="xtick_9">
     <g id="line2d_18">
      <g>
       <use xlink:href="#m899a1aae5b" x="566.124555" y="190.656" style="fill: #262626; stroke: #262626; stroke-width: 1.25"/>
      </g>
     </g>
     <g id="text_17">
      <text style="font-size: 10.45px; font-family: 'DejaVu Sans'; text-anchor: middle; fill: #262626" x="566.124555" y="208.096367" transform="rotate(-0 566.124555 208.096367)">8</text>
     </g>
    </g>
    <g id="xtick_10">
     <g id="line2d_19">
      <g>
       <use xlink:href="#m899a1aae5b" x="618.902737" y="190.656" style="fill: #262626; stroke: #262626; stroke-width: 1.25"/>
      </g>
     </g>
     <g id="text_18">
      <text style="font-size: 10.45px; font-family: 'DejaVu Sans'; text-anchor: middle; fill: #262626" x="618.902737" y="208.096367" transform="rotate(-0 618.902737 208.096367)">10</text>
     </g>
    </g>
    <g id="text_19">
     <text style="font-size: 11.4px; font-family: 'DejaVu Sans'; text-anchor: middle; fill: #262626" x="500.151828" y="222.931859" transform="rotate(-0 500.151828 222.931859)">Epoch</text>
    </g>
   </g>
   <g id="matplotlib.axis_4">
    <g id="ytick_7">
     <g id="line2d_20">
      <g>
       <use xlink:href="#mbf121f434b" x="369.525828" y="168.52117" style="fill: #262626; stroke: #262626; stroke-width: 1.25"/>
      </g>
     </g>
     <g id="text_20">
      <text style="font-size: 10.45px; font-family: 'DejaVu Sans'; text-anchor: end; fill: #262626" x="360.025828" y="172.491354" transform="rotate(-0 360.025828 172.491354)">0.6</text>
     </g>
    </g>
    <g id="ytick_8">
     <g id="line2d_21">
      <g>
       <use xlink:href="#mbf121f434b" x="369.525828" y="127.300743" style="fill: #262626; stroke: #262626; stroke-width: 1.25"/>
      </g>
     </g>
     <g id="text_21">
      <text style="font-size: 10.45px; font-family: 'DejaVu Sans'; text-anchor: end; fill: #262626" x="360.025828" y="131.270927" transform="rotate(-0 360.025828 131.270927)">0.7</text>
     </g>
    </g>
    <g id="ytick_9">
     <g id="line2d_22">
      <g>
       <use xlink:href="#mbf121f434b" x="369.525828" y="86.080316" style="fill: #262626; stroke: #262626; stroke-width: 1.25"/>
      </g>
     </g>
     <g id="text_22">
      <text style="font-size: 10.45px; font-family: 'DejaVu Sans'; text-anchor: end; fill: #262626" x="360.025828" y="90.0505" transform="rotate(-0 360.025828 90.0505)">0.8</text>
     </g>
    </g>
    <g id="ytick_10">
     <g id="line2d_23">
      <g>
       <use xlink:href="#mbf121f434b" x="369.525828" y="44.859889" style="fill: #262626; stroke: #262626; stroke-width: 1.25"/>
      </g>
     </g>
     <g id="text_23">
      <text style="font-size: 10.45px; font-family: 'DejaVu Sans'; text-anchor: end; fill: #262626" x="360.025828" y="48.830073" transform="rotate(-0 360.025828 48.830073)">0.9</text>
     </g>
    </g>
    <g id="text_24">
     <text style="font-size: 11.4px; font-family: 'DejaVu Sans'; text-anchor: middle; fill: #262626" x="337.036219" y="98.928" transform="rotate(-90 337.036219 98.928)">Training accuracy</text>
    </g>
   </g>
   <g id="line2d_24">
    <path d="M 381.400919 178.263842 
L 407.79001 129.847968 
L 434.179101 118.506308 
L 460.568192 111.738498 
L 486.957283 108.763636 
L 513.346374 104.412901 
L 539.735464 103.222957 
L 566.124555 101.549597 
L 592.513646 101.028996 
L 618.902737 99.132522 
" clip-path="url(#p2991838ab4)" style="fill: none; stroke: #dd8452; stroke-width: 1.5; stroke-linecap: round"/>
    <g clip-path="url(#p2991838ab4)">
     <use xlink:href="#m20f906394f" x="381.400919" y="178.263842" style="fill: #dd8452; stroke: #dd8452"/>
     <use xlink:href="#m20f906394f" x="407.79001" y="129.847968" style="fill: #dd8452; stroke: #dd8452"/>
     <use xlink:href="#m20f906394f" x="434.179101" y="118.506308" style="fill: #dd8452; stroke: #dd8452"/>
     <use xlink:href="#m20f906394f" x="460.568192" y="111.738498" style="fill: #dd8452; stroke: #dd8452"/>
     <use xlink:href="#m20f906394f" x="486.957283" y="108.763636" style="fill: #dd8452; stroke: #dd8452"/>
     <use xlink:href="#m20f906394f" x="513.346374" y="104.412901" style="fill: #dd8452; stroke: #dd8452"/>
     <use xlink:href="#m20f906394f" x="539.735464" y="103.222957" style="fill: #dd8452; stroke: #dd8452"/>
     <use xlink:href="#m20f906394f" x="566.124555" y="101.549597" style="fill: #dd8452; stroke: #dd8452"/>
     <use xlink:href="#m20f906394f" x="592.513646" y="101.028996" style="fill: #dd8452; stroke: #dd8452"/>
     <use xlink:href="#m20f906394f" x="618.902737" y="99.132522" style="fill: #dd8452; stroke: #dd8452"/>
    </g>
   </g>
   <g id="line2d_25">
    <path d="M 381.400919 182.317091 
L 407.79001 96.715447 
L 434.179101 81.729581 
L 460.568192 69.60702 
L 486.957283 60.719621 
L 513.346374 50.121676 
L 539.735464 41.420206 
L 566.124555 34.503652 
L 592.513646 28.070514 
L 618.902737 21.748933 
" clip-path="url(#p2991838ab4)" style="fill: none; stroke: #55a868; stroke-width: 1.5; stroke-linecap: round"/>
    <g clip-path="url(#p2991838ab4)">
     <use xlink:href="#me6d6c93e77" x="381.400919" y="182.317091" style="fill: #55a868; stroke: #55a868"/>
     <use xlink:href="#me6d6c93e77" x="407.79001" y="96.715447" style="fill: #55a868; stroke: #55a868"/>
     <use xlink:href="#me6d6c93e77" x="434.179101" y="81.729581" style="fill: #55a868; stroke: #55a868"/>
     <use xlink:href="#me6d6c93e77" x="460.568192" y="69.60702" style="fill: #55a868; stroke: #55a868"/>
     <use xlink:href="#me6d6c93e77" x="486.957283" y="60.719621" style="fill: #55a868; stroke: #55a868"/>
     <use xlink:href="#me6d6c93e77" x="513.346374" y="50.121676" style="fill: #55a868; stroke: #55a868"/>
     <use xlink:href="#me6d6c93e77" x="539.735464" y="41.420206" style="fill: #55a868; stroke: #55a868"/>
     <use xlink:href="#me6d6c93e77" x="566.124555" y="34.503652" style="fill: #55a868; stroke: #55a868"/>
     <use xlink:href="#me6d6c93e77" x="592.513646" y="28.070514" style="fill: #55a868; stroke: #55a868"/>
     <use xlink:href="#me6d6c93e77" x="618.902737" y="21.748933" style="fill: #55a868; stroke: #55a868"/>
    </g>
   </g>
   <g id="line2d_26">
    <path d="M 381.400919 137.991652 
L 407.79001 78.680348 
L 434.179101 59.789976 
L 460.568192 47.072443 
L 486.957283 36.771984 
L 513.346374 30.450403 
L 539.735464 25.393138 
L 566.124555 21.748933 
L 592.513646 18.402213 
L 618.902737 15.538909 
" clip-path="url(#p2991838ab4)" style="fill: none; stroke: #c44e52; stroke-width: 1.5; stroke-linecap: round"/>
    <g clip-path="url(#p2991838ab4)">
     <use xlink:href="#mec7409a573" x="381.400919" y="137.991652" style="fill: #c44e52; stroke: #c44e52"/>
     <use xlink:href="#mec7409a573" x="407.79001" y="78.680348" style="fill: #c44e52; stroke: #c44e52"/>
     <use xlink:href="#mec7409a573" x="434.179101" y="59.789976" style="fill: #c44e52; stroke: #c44e52"/>
     <use xlink:href="#mec7409a573" x="460.568192" y="47.072443" style="fill: #c44e52; stroke: #c44e52"/>
     <use xlink:href="#mec7409a573" x="486.957283" y="36.771984" style="fill: #c44e52; stroke: #c44e52"/>
     <use xlink:href="#mec7409a573" x="513.346374" y="30.450403" style="fill: #c44e52; stroke: #c44e52"/>
     <use xlink:href="#mec7409a573" x="539.735464" y="25.393138" style="fill: #c44e52; stroke: #c44e52"/>
     <use xlink:href="#mec7409a573" x="566.124555" y="21.748933" style="fill: #c44e52; stroke: #c44e52"/>
     <use xlink:href="#mec7409a573" x="592.513646" y="18.402213" style="fill: #c44e52; stroke: #c44e52"/>
     <use xlink:href="#mec7409a573" x="618.902737" y="15.538909" style="fill: #c44e52; stroke: #c44e52"/>
    </g>
   </g>
   <g id="patch_6">
    <path d="M 369.525828 190.656 
L 369.525828 7.2 
" style="fill: none; stroke: #262626; stroke-width: 1.25; stroke-linejoin: miter; stroke-linecap: square"/>
   </g>
   <g id="patch_7">
    <path d="M 369.525828 190.656 
L 630.777828 190.656 
" style="fill: none; stroke: #262626; stroke-width: 1.25; stroke-linejoin: miter; stroke-linecap: square"/>
   </g>
   <g id="legend_1">
    <g id="patch_8">
     <path d="M 524.070266 185.431 
L 623.462828 185.431 
Q 625.552828 185.431 625.552828 183.341 
L 625.552828 138.370078 
Q 625.552828 136.280078 623.462828 136.280078 
L 524.070266 136.280078 
Q 521.980266 136.280078 521.980266 138.370078 
L 521.980266 183.341 
Q 521.980266 185.431 524.070266 185.431 
z
" style="fill: #ffffff; opacity: 0.8; stroke: #cccccc; stroke-linejoin: miter"/>
    </g>
    <g id="line2d_27">
     <path d="M 526.160266 144.742945 
L 536.610266 144.742945 
L 547.060266 144.742945 
" style="fill: none; stroke: #dd8452; stroke-width: 1.5; stroke-linecap: round"/>
     <g>
      <use xlink:href="#m20f906394f" x="536.610266" y="144.742945" style="fill: #dd8452; stroke: #dd8452"/>
     </g>
    </g>
    <g id="text_25">
     <text style="font-size: 10.45px; font-family: 'DejaVu Sans'; text-anchor: start; fill: #262626" x="555.420266" y="148.400445" transform="rotate(-0 555.420266 148.400445)">Linear probe</text>
    </g>
    <g id="line2d_28">
     <path d="M 526.160266 160.081586 
L 536.610266 160.081586 
L 547.060266 160.081586 
" style="fill: none; stroke: #55a868; stroke-width: 1.5; stroke-linecap: round"/>
     <g>
      <use xlink:href="#me6d6c93e77" x="536.610266" y="160.081586" style="fill: #55a868; stroke: #55a868"/>
     </g>
    </g>
    <g id="text_26">
     <text style="font-size: 10.45px; font-family: 'DejaVu Sans'; text-anchor: start; fill: #262626" x="555.420266" y="163.739086" transform="rotate(-0 555.420266 163.739086)">LoRA</text>
    </g>
    <g id="line2d_29">
     <path d="M 526.160266 175.420227 
L 536.610266 175.420227 
L 547.060266 175.420227 
" style="fill: none; stroke: #c44e52; stroke-width: 1.5; stroke-linecap: round"/>
     <g>
      <use xlink:href="#mec7409a573" x="536.610266" y="175.420227" style="fill: #c44e52; stroke: #c44e52"/>
     </g>
    </g>
    <g id="text_27">
     <text style="font-size: 10.45px; font-family: 'DejaVu Sans'; text-anchor: start; fill: #262626" x="555.420266" y="179.077727" transform="rotate(-0 555.420266 179.077727)">Full FT</text>
    </g>
   </g>
  </g>
 </g>
 <defs>
  <clipPath id="p6e3b2de711">
   <rect x="48.351828" y="7.2" width="261.252" height="183.456"/>
  </clipPath>
  <clipPath id="p2991838ab4">
   <rect x="369.525828" y="7.2" width="261.252" height="183.456"/>
  </clipPath>
 </defs>
</svg>
